P3 
4 2
186
156 116 146
168 128 168
144 104 124
186 134 138
48 61 78
89 87 56
64 58 61
37 51 107
